<mxfile host="app.diagrams.net" modified="2024-05-13T03:03:13.564Z" agent="Mozilla/5.0 (Windows NT 10.0; Win64; x64) AppleWebKit/537.36 (KHTML, like Gecko) Chrome/124.0.0.0 Safari/537.36" etag="TxbIY0kGZNg9yOziH_me" version="24.4.0" type="github">
  <diagram id="vlHtvx4iaLJU1_qLbznJ" name="EXERCISE-8">
    <mxGraphModel dx="1120" dy="434" grid="1" gridSize="10" guides="1" tooltips="1" connect="1" arrows="1" fold="1" page="1" pageScale="1" pageWidth="827" pageHeight="1169" math="0" shadow="0">
      <root>
        <mxCell id="0" />
        <mxCell id="1" parent="0" />
        <mxCell id="-bCjfBmUpRdGnE4IvkYQ-1" value="" style="edgeStyle=orthogonalEdgeStyle;rounded=0;orthogonalLoop=1;jettySize=auto;html=1;" parent="1" source="dRWrJr_iiuB6LeCtX3rQ-1" target="dRWrJr_iiuB6LeCtX3rQ-2" edge="1">
          <mxGeometry relative="1" as="geometry" />
        </mxCell>
        <mxCell id="dRWrJr_iiuB6LeCtX3rQ-1" value="START" style="rounded=1;whiteSpace=wrap;html=1;" parent="1" vertex="1">
          <mxGeometry x="361" y="40" width="106" height="50" as="geometry" />
        </mxCell>
        <mxCell id="JhGVobaEzFI4ewdK3VO--2" value="" style="edgeStyle=orthogonalEdgeStyle;rounded=0;orthogonalLoop=1;jettySize=auto;html=1;" parent="1" source="dRWrJr_iiuB6LeCtX3rQ-2" target="JhGVobaEzFI4ewdK3VO--1" edge="1">
          <mxGeometry relative="1" as="geometry" />
        </mxCell>
        <mxCell id="dRWrJr_iiuB6LeCtX3rQ-2" value="seconds" style="shape=parallelogram;perimeter=parallelogramPerimeter;whiteSpace=wrap;html=1;fixedSize=1;" parent="1" vertex="1">
          <mxGeometry x="371" y="120" width="86" height="40" as="geometry" />
        </mxCell>
        <mxCell id="JhGVobaEzFI4ewdK3VO--4" value="" style="edgeStyle=orthogonalEdgeStyle;rounded=0;orthogonalLoop=1;jettySize=auto;html=1;" parent="1" source="JhGVobaEzFI4ewdK3VO--1" target="JhGVobaEzFI4ewdK3VO--3" edge="1">
          <mxGeometry relative="1" as="geometry" />
        </mxCell>
        <mxCell id="JhGVobaEzFI4ewdK3VO--10" value="" style="edgeStyle=orthogonalEdgeStyle;rounded=0;orthogonalLoop=1;jettySize=auto;html=1;" parent="1" source="JhGVobaEzFI4ewdK3VO--1" target="JhGVobaEzFI4ewdK3VO--9" edge="1">
          <mxGeometry relative="1" as="geometry" />
        </mxCell>
        <mxCell id="JhGVobaEzFI4ewdK3VO--1" value="seconds &amp;gt;= 0 ?" style="rhombus;whiteSpace=wrap;html=1;" parent="1" vertex="1">
          <mxGeometry x="361" y="210" width="106" height="80" as="geometry" />
        </mxCell>
        <mxCell id="JhGVobaEzFI4ewdK3VO--6" value="" style="edgeStyle=orthogonalEdgeStyle;rounded=0;orthogonalLoop=1;jettySize=auto;html=1;" parent="1" source="JhGVobaEzFI4ewdK3VO--3" target="JhGVobaEzFI4ewdK3VO--5" edge="1">
          <mxGeometry relative="1" as="geometry" />
        </mxCell>
        <mxCell id="JhGVobaEzFI4ewdK3VO--3" value="Error: Input seconds cannot be negative" style="shape=parallelogram;perimeter=parallelogramPerimeter;whiteSpace=wrap;html=1;fixedSize=1;" parent="1" vertex="1">
          <mxGeometry x="500" y="225" width="210" height="50" as="geometry" />
        </mxCell>
        <mxCell id="JhGVobaEzFI4ewdK3VO--5" value="FIN" style="rounded=1;whiteSpace=wrap;html=1;" parent="1" vertex="1">
          <mxGeometry x="740" y="230" width="75" height="40" as="geometry" />
        </mxCell>
        <mxCell id="JhGVobaEzFI4ewdK3VO--45" value="" style="edgeStyle=orthogonalEdgeStyle;rounded=0;orthogonalLoop=1;jettySize=auto;html=1;" parent="1" source="JhGVobaEzFI4ewdK3VO--9" target="JhGVobaEzFI4ewdK3VO--22" edge="1">
          <mxGeometry relative="1" as="geometry" />
        </mxCell>
        <mxCell id="JhGVobaEzFI4ewdK3VO--9" value="sizehour = (seconds / 3600).size&lt;div&gt;&amp;nbsp;sizeminute= ((seconds % 3600) / 60).size&lt;/div&gt;&lt;div&gt;sizefinalseconds= ((segundos % 3600)%60).size&lt;/div&gt;" style="whiteSpace=wrap;html=1;" parent="1" vertex="1">
          <mxGeometry x="256" y="330" width="315" height="60" as="geometry" />
        </mxCell>
        <mxCell id="JhGVobaEzFI4ewdK3VO--40" value="" style="edgeStyle=orthogonalEdgeStyle;rounded=0;orthogonalLoop=1;jettySize=auto;html=1;" parent="1" source="JhGVobaEzFI4ewdK3VO--11" target="JhGVobaEzFI4ewdK3VO--18" edge="1">
          <mxGeometry relative="1" as="geometry" />
        </mxCell>
        <mxCell id="JhGVobaEzFI4ewdK3VO--42" value="" style="edgeStyle=orthogonalEdgeStyle;rounded=0;orthogonalLoop=1;jettySize=auto;html=1;" parent="1" source="JhGVobaEzFI4ewdK3VO--11" target="JhGVobaEzFI4ewdK3VO--14" edge="1">
          <mxGeometry relative="1" as="geometry" />
        </mxCell>
        <mxCell id="JhGVobaEzFI4ewdK3VO--11" value="sizehour &amp;lt; 2 ?" style="rhombus;whiteSpace=wrap;html=1;" parent="1" vertex="1">
          <mxGeometry x="70" y="430" width="90" height="80" as="geometry" />
        </mxCell>
        <mxCell id="JhGVobaEzFI4ewdK3VO--44" value="" style="edgeStyle=orthogonalEdgeStyle;rounded=0;orthogonalLoop=1;jettySize=auto;html=1;" parent="1" source="JhGVobaEzFI4ewdK3VO--14" target="JhGVobaEzFI4ewdK3VO--20" edge="1">
          <mxGeometry relative="1" as="geometry" />
        </mxCell>
        <mxCell id="JhGVobaEzFI4ewdK3VO--14" value="&quot;0&quot;, seconds/3600, &quot;:&quot;" style="shape=parallelogram;perimeter=parallelogramPerimeter;whiteSpace=wrap;html=1;fixedSize=1;" parent="1" vertex="1">
          <mxGeometry x="163.5" y="550" width="180" height="35" as="geometry" />
        </mxCell>
        <mxCell id="JhGVobaEzFI4ewdK3VO--16" value="FIN" style="rounded=1;whiteSpace=wrap;html=1;" parent="1" vertex="1">
          <mxGeometry x="86.25" y="640" width="57.5" height="30" as="geometry" />
        </mxCell>
        <mxCell id="JhGVobaEzFI4ewdK3VO--41" value="" style="edgeStyle=orthogonalEdgeStyle;rounded=0;orthogonalLoop=1;jettySize=auto;html=1;" parent="1" source="JhGVobaEzFI4ewdK3VO--18" target="JhGVobaEzFI4ewdK3VO--16" edge="1">
          <mxGeometry relative="1" as="geometry" />
        </mxCell>
        <mxCell id="JhGVobaEzFI4ewdK3VO--18" value="seconds/3600 &quot;:&quot;" style="shape=parallelogram;perimeter=parallelogramPerimeter;whiteSpace=wrap;html=1;fixedSize=1;" parent="1" vertex="1">
          <mxGeometry x="57.5" y="550" width="115" height="35" as="geometry" />
        </mxCell>
        <mxCell id="JhGVobaEzFI4ewdK3VO--20" value="FIN" style="rounded=1;whiteSpace=wrap;html=1;" parent="1" vertex="1">
          <mxGeometry x="225.88" y="640" width="55.25" height="30" as="geometry" />
        </mxCell>
        <mxCell id="JhGVobaEzFI4ewdK3VO--24" value="" style="edgeStyle=orthogonalEdgeStyle;rounded=0;orthogonalLoop=1;jettySize=auto;html=1;" parent="1" source="JhGVobaEzFI4ewdK3VO--22" target="JhGVobaEzFI4ewdK3VO--23" edge="1">
          <mxGeometry relative="1" as="geometry" />
        </mxCell>
        <mxCell id="JhGVobaEzFI4ewdK3VO--28" value="" style="edgeStyle=orthogonalEdgeStyle;rounded=0;orthogonalLoop=1;jettySize=auto;html=1;" parent="1" source="JhGVobaEzFI4ewdK3VO--22" target="JhGVobaEzFI4ewdK3VO--27" edge="1">
          <mxGeometry relative="1" as="geometry" />
        </mxCell>
        <mxCell id="JhGVobaEzFI4ewdK3VO--22" value="sizeminute &amp;lt; 2" style="rhombus;whiteSpace=wrap;html=1;" parent="1" vertex="1">
          <mxGeometry x="359" y="430" width="110" height="80" as="geometry" />
        </mxCell>
        <mxCell id="JhGVobaEzFI4ewdK3VO--26" value="" style="edgeStyle=orthogonalEdgeStyle;rounded=0;orthogonalLoop=1;jettySize=auto;html=1;" parent="1" source="JhGVobaEzFI4ewdK3VO--23" target="JhGVobaEzFI4ewdK3VO--25" edge="1">
          <mxGeometry relative="1" as="geometry" />
        </mxCell>
        <mxCell id="JhGVobaEzFI4ewdK3VO--23" value="(seconds%3600)/60, &quot;:&quot;" style="shape=parallelogram;perimeter=parallelogramPerimeter;whiteSpace=wrap;html=1;fixedSize=1;" parent="1" vertex="1">
          <mxGeometry x="331" y="550" width="165" height="35" as="geometry" />
        </mxCell>
        <mxCell id="JhGVobaEzFI4ewdK3VO--25" value="FIN" style="rounded=1;whiteSpace=wrap;html=1;" parent="1" vertex="1">
          <mxGeometry x="386.25" y="642.5" width="55.5" height="30" as="geometry" />
        </mxCell>
        <mxCell id="JhGVobaEzFI4ewdK3VO--30" value="" style="edgeStyle=orthogonalEdgeStyle;rounded=0;orthogonalLoop=1;jettySize=auto;html=1;" parent="1" source="JhGVobaEzFI4ewdK3VO--27" target="JhGVobaEzFI4ewdK3VO--29" edge="1">
          <mxGeometry relative="1" as="geometry" />
        </mxCell>
        <mxCell id="JhGVobaEzFI4ewdK3VO--27" value="&quot;0&quot;, (seconds%3600)/60, &quot;:&quot;" style="shape=parallelogram;perimeter=parallelogramPerimeter;whiteSpace=wrap;html=1;fixedSize=1;" parent="1" vertex="1">
          <mxGeometry x="486" y="550" width="184" height="35" as="geometry" />
        </mxCell>
        <mxCell id="JhGVobaEzFI4ewdK3VO--29" value="FIN" style="rounded=1;whiteSpace=wrap;html=1;" parent="1" vertex="1">
          <mxGeometry x="548.5" y="642.5" width="59" height="30" as="geometry" />
        </mxCell>
        <mxCell id="JhGVobaEzFI4ewdK3VO--33" value="" style="edgeStyle=orthogonalEdgeStyle;rounded=0;orthogonalLoop=1;jettySize=auto;html=1;" parent="1" source="JhGVobaEzFI4ewdK3VO--31" target="JhGVobaEzFI4ewdK3VO--32" edge="1">
          <mxGeometry relative="1" as="geometry" />
        </mxCell>
        <mxCell id="JhGVobaEzFI4ewdK3VO--37" value="" style="edgeStyle=orthogonalEdgeStyle;rounded=0;orthogonalLoop=1;jettySize=auto;html=1;" parent="1" source="JhGVobaEzFI4ewdK3VO--31" target="JhGVobaEzFI4ewdK3VO--36" edge="1">
          <mxGeometry relative="1" as="geometry" />
        </mxCell>
        <mxCell id="JhGVobaEzFI4ewdK3VO--31" value="sizefinalseconds &amp;lt;2?" style="rhombus;whiteSpace=wrap;html=1;" parent="1" vertex="1">
          <mxGeometry x="684" y="430" width="150" height="80" as="geometry" />
        </mxCell>
        <mxCell id="JhGVobaEzFI4ewdK3VO--35" value="" style="edgeStyle=orthogonalEdgeStyle;rounded=0;orthogonalLoop=1;jettySize=auto;html=1;" parent="1" source="JhGVobaEzFI4ewdK3VO--32" target="JhGVobaEzFI4ewdK3VO--34" edge="1">
          <mxGeometry relative="1" as="geometry" />
        </mxCell>
        <mxCell id="JhGVobaEzFI4ewdK3VO--32" value="&quot;0&quot;, (seconds%3600)%60" style="shape=parallelogram;perimeter=parallelogramPerimeter;whiteSpace=wrap;html=1;fixedSize=1;" parent="1" vertex="1">
          <mxGeometry x="850" y="550" width="175" height="35" as="geometry" />
        </mxCell>
        <mxCell id="JhGVobaEzFI4ewdK3VO--34" value="FIN" style="rounded=1;whiteSpace=wrap;html=1;" parent="1" vertex="1">
          <mxGeometry x="910.37" y="640" width="54.25" height="30" as="geometry" />
        </mxCell>
        <mxCell id="JhGVobaEzFI4ewdK3VO--39" value="" style="edgeStyle=orthogonalEdgeStyle;rounded=0;orthogonalLoop=1;jettySize=auto;html=1;" parent="1" source="JhGVobaEzFI4ewdK3VO--36" target="JhGVobaEzFI4ewdK3VO--38" edge="1">
          <mxGeometry relative="1" as="geometry" />
        </mxCell>
        <mxCell id="JhGVobaEzFI4ewdK3VO--36" value="(seconds%3600)%60" style="shape=parallelogram;perimeter=parallelogramPerimeter;whiteSpace=wrap;html=1;fixedSize=1;" parent="1" vertex="1">
          <mxGeometry x="661.5" y="550" width="195" height="35" as="geometry" />
        </mxCell>
        <mxCell id="JhGVobaEzFI4ewdK3VO--38" value="FIN" style="rounded=1;whiteSpace=wrap;html=1;" parent="1" vertex="1">
          <mxGeometry x="726.5" y="640" width="65" height="30" as="geometry" />
        </mxCell>
        <mxCell id="JhGVobaEzFI4ewdK3VO--46" value="" style="endArrow=none;html=1;rounded=0;" parent="1" edge="1">
          <mxGeometry width="50" height="50" relative="1" as="geometry">
            <mxPoint x="120" y="400" as="sourcePoint" />
            <mxPoint x="760" y="400" as="targetPoint" />
          </mxGeometry>
        </mxCell>
        <mxCell id="JhGVobaEzFI4ewdK3VO--47" value="" style="endArrow=classic;html=1;rounded=0;entryX=0.5;entryY=0;entryDx=0;entryDy=0;" parent="1" target="JhGVobaEzFI4ewdK3VO--11" edge="1">
          <mxGeometry width="50" height="50" relative="1" as="geometry">
            <mxPoint x="120" y="400" as="sourcePoint" />
            <mxPoint x="360" y="510" as="targetPoint" />
          </mxGeometry>
        </mxCell>
        <mxCell id="JhGVobaEzFI4ewdK3VO--48" value="" style="endArrow=classic;html=1;rounded=0;entryX=0.5;entryY=0;entryDx=0;entryDy=0;" parent="1" target="JhGVobaEzFI4ewdK3VO--31" edge="1">
          <mxGeometry width="50" height="50" relative="1" as="geometry">
            <mxPoint x="760" y="400" as="sourcePoint" />
            <mxPoint x="360" y="410" as="targetPoint" />
          </mxGeometry>
        </mxCell>
        <mxCell id="JhGVobaEzFI4ewdK3VO--49" value="NO" style="text;strokeColor=none;align=center;fillColor=none;html=1;verticalAlign=middle;whiteSpace=wrap;rounded=0;" parent="1" vertex="1">
          <mxGeometry x="450" y="220" width="60" height="30" as="geometry" />
        </mxCell>
        <mxCell id="JhGVobaEzFI4ewdK3VO--50" value="NO" style="text;strokeColor=none;align=center;fillColor=none;html=1;verticalAlign=middle;whiteSpace=wrap;rounded=0;" parent="1" vertex="1">
          <mxGeometry x="70" y="510" width="50" height="30" as="geometry" />
        </mxCell>
        <mxCell id="JhGVobaEzFI4ewdK3VO--51" value="NO" style="text;strokeColor=none;align=center;fillColor=none;html=1;verticalAlign=middle;whiteSpace=wrap;rounded=0;" parent="1" vertex="1">
          <mxGeometry x="354" y="515" width="60" height="30" as="geometry" />
        </mxCell>
        <mxCell id="JhGVobaEzFI4ewdK3VO--52" value="NO" style="text;strokeColor=none;align=center;fillColor=none;html=1;verticalAlign=middle;whiteSpace=wrap;rounded=0;" parent="1" vertex="1">
          <mxGeometry x="700" y="510" width="60" height="30" as="geometry" />
        </mxCell>
        <mxCell id="JhGVobaEzFI4ewdK3VO--53" value="SI" style="text;strokeColor=none;align=center;fillColor=none;html=1;verticalAlign=middle;whiteSpace=wrap;rounded=0;" parent="1" vertex="1">
          <mxGeometry x="414" y="290" width="60" height="30" as="geometry" />
        </mxCell>
        <mxCell id="JhGVobaEzFI4ewdK3VO--54" value="SI" style="text;strokeColor=none;align=center;fillColor=none;html=1;verticalAlign=middle;whiteSpace=wrap;rounded=0;" parent="1" vertex="1">
          <mxGeometry x="480" y="440" width="60" height="30" as="geometry" />
        </mxCell>
        <mxCell id="JhGVobaEzFI4ewdK3VO--55" value="SI" style="text;strokeColor=none;align=center;fillColor=none;html=1;verticalAlign=middle;whiteSpace=wrap;rounded=0;" parent="1" vertex="1">
          <mxGeometry x="834" y="440" width="60" height="30" as="geometry" />
        </mxCell>
        <mxCell id="JhGVobaEzFI4ewdK3VO--56" value="SI" style="text;strokeColor=none;align=center;fillColor=none;html=1;verticalAlign=middle;whiteSpace=wrap;rounded=0;" parent="1" vertex="1">
          <mxGeometry x="172.5" y="440" width="60" height="30" as="geometry" />
        </mxCell>
      </root>
    </mxGraphModel>
  </diagram>
</mxfile>
